<?xml version="1.0" standalone="no"?>
<!DOCTYPE svg PUBLIC "-//W3C//DTD SVG 20010904//EN"
 "http://www.w3.org/TR/2001/REC-SVG-20010904/DTD/svg10.dtd">
<svg version="1.0" xmlns="http://www.w3.org/2000/svg"
 width="285.000000pt" height="177.000000pt" viewBox="0 0 285.000000 177.000000"
 preserveAspectRatio="xMidYMid meet">

<g transform="translate(0.000000,177.000000) scale(0.100000,-0.100000)"
fill="#000000" stroke="none">
<path d="M2784 1755 c26 -20 66 -19 66 0 0 11 -11 15 -42 15 -40 -1 -42 -2
-24 -15z"/>
<path d="M738 1253 c7 -3 16 -2 19 1 4 3 -2 6 -13 5 -11 0 -14 -3 -6 -6z"/>
<path d="M682 1185 c-3 -40 44 -68 103 -63 57 5 53 23 -6 25 -69 3 -87 10 -92
36 -4 20 -4 20 -5 2z"/>
<path d="M1357 1144 c-6 -6 16 -34 27 -34 3 0 6 9 6 20 0 19 -20 27 -33 14z"/>
<path d="M1327 1114 c-4 -4 -25 -7 -47 -6 -36 2 -43 -2 -60 -31 -25 -41 -25
-59 0 -82 19 -17 25 -14 20 10 -1 6 5 4 12 -3 11 -11 10 -15 -4 -23 -16 -9
-17 -13 -3 -38 12 -25 38 -41 70 -45 6 -1 9 13 7 31 -2 17 1 34 7 37 6 4 9 -4
8 -21 -1 -20 2 -27 13 -25 58 14 80 14 80 1 -1 -19 -21 -43 -47 -58 -20 -10
-23 -9 -29 14 -6 26 -18 32 -29 15 -3 -5 -15 -10 -26 -10 -10 0 -19 5 -19 10
0 6 -7 10 -15 10 -8 0 -15 5 -15 10 0 6 -4 10 -10 10 -5 0 -10 -11 -10 -25 0
-21 4 -25 23 -21 33 6 52 -9 53 -41 0 -15 2 -35 5 -43 12 -42 -62 5 -75 48 -4
12 -12 22 -18 22 -5 0 -7 7 -4 16 3 8 2 12 -4 9 -6 -3 -10 2 -10 12 0 14 -2
15 -9 5 -4 -8 -12 -13 -17 -12 -4 1 -11 -7 -15 -17 -7 -16 -8 -16 -8 3 -1 11
6 29 14 40 17 22 20 54 5 54 -6 0 -16 -11 -22 -25 -6 -14 -14 -25 -18 -25 -4
0 -12 -17 -18 -37 -6 -21 -16 -55 -22 -75 -10 -33 -16 -38 -41 -38 -29 0 -33
7 -29 44 3 36 -10 68 -26 62 -13 -5 -14 0 -9 27 4 23 3 28 -4 17 -7 -11 -8 7
-4 58 6 72 3 78 -29 73 -4 0 -4 7 -1 17 6 16 5 16 -14 0 -11 -10 -25 -18 -31
-18 -7 0 -11 -3 -11 -7 5 -29 -3 -40 -26 -37 -15 1 -25 -3 -24 -9 3 -25 -26
-76 -48 -86 -29 -13 -36 -14 -29 -2 4 5 -3 7 -14 4 -13 -3 -20 0 -20 8 0 9 -5
7 -11 -5 -9 -14 -13 -15 -19 -6 -6 9 -11 7 -19 -7 -12 -23 4 -97 20 -88 5 4 9
-3 9 -14 0 -23 19 -28 38 -9 9 9 12 9 12 0 0 -12 47 -12 67 1 14 9 63 5 57 -4
-2 -4 4 -10 13 -12 10 -3 -55 -5 -144 -6 l-163 -1 0 24 c0 13 6 26 12 28 10 4
10 10 1 29 l-12 24 0 -25 c-1 -18 -4 -21 -10 -11 -7 11 -9 11 -13 0 -2 -7 -10
-9 -16 -5 -8 4 -9 13 -4 24 5 9 8 32 7 49 -2 18 4 38 11 44 8 6 14 8 14 3 0
-5 9 5 20 21 11 17 20 28 21 25 1 -3 3 -25 4 -50 5 -76 7 -77 15 -10 4 36 4
67 0 70 -4 3 -10 16 -11 29 -4 22 -7 19 -39 -27 -19 -28 -39 -50 -45 -49 -6 1
-9 -17 -8 -45 1 -27 -3 -48 -7 -48 -12 0 -24 65 -16 85 3 9 2 13 -4 10 -17
-11 -11 7 8 21 13 10 14 15 5 25 -17 17 -44 20 -60 7 -9 -7 -17 -5 -28 6 -9 9
-18 16 -19 16 -2 0 -4 -26 -5 -57 -1 -73 -14 -85 -32 -31 l-14 43 -5 -65 c-4
-53 -8 -65 -22 -66 -10 -1 -18 1 -18 5 0 4 -16 5 -36 3 -27 -3 -39 0 -46 11
-6 12 -17 15 -39 10 -18 -3 -34 -1 -38 5 -8 13 -71 26 -71 15 0 -5 -20 -7 -45
-5 -33 3 -45 0 -45 -10 0 -10 14 -13 53 -13 28 0 63 -3 77 -6 15 -5 -5 -8 -52
-8 l-78 -1 0 -101 0 -101 179 7 178 7 2 -77 c1 -52 -2 -75 -9 -70 -14 8 -184
8 -277 -1 l-73 -6 0 -264 0 -264 1425 0 1425 0 0 324 0 325 -27 4 -28 4 28 2
c27 1 27 1 27 75 0 50 -4 76 -12 80 -10 5 -10 7 0 12 8 4 12 30 12 79 l0 73
-87 -2 c-78 -2 -96 -6 -158 -36 -38 -19 -76 -33 -84 -31 -9 2 -12 -3 -7 -14 3
-9 6 -27 6 -40 0 -16 6 -24 18 -23 124 1 282 -5 282 -12 0 -5 -63 -9 -140 -8
-92 0 -146 -4 -155 -12 -17 -14 -35 13 -27 42 3 14 0 17 -12 12 -14 -5 -16 2
-15 49 1 39 -4 62 -17 79 l-18 25 -24 -35 c-13 -19 -30 -52 -39 -73 l-15 -39
-286 0 c-157 0 -283 -2 -281 -5 3 -2 126 -7 274 -11 149 -3 274 -10 278 -13 4
-4 5 -15 1 -24 -5 -15 -20 -17 -107 -15 -73 2 -101 0 -104 -9 -3 -7 -19 -12
-36 -12 -31 2 -31 2 -4 6 15 2 27 9 27 15 0 5 -6 8 -14 5 -8 -3 -24 3 -36 13
-29 25 -43 16 -37 -24 3 -17 3 -25 0 -18 -7 17 -34 15 -27 -3 8 -21 74 -32 85
-14 8 12 13 7 11 -12 -1 -3 53 -6 119 -6 66 0 122 -3 126 -7 3 -3 7 -23 8 -43
2 -57 15 -91 35 -96 13 -3 16 -11 12 -32 -3 -20 -1 -26 7 -21 6 4 11 1 11 -9
0 -9 -5 -13 -10 -10 -6 4 -36 1 -67 -6 -42 -10 -51 -15 -37 -20 12 -5 -7 -8
-46 -8 -36 -1 -90 -8 -120 -16 -68 -19 -249 -28 -267 -13 -11 9 -119 11 -322
5 -44 -1 -66 2 -68 11 -3 7 4 12 19 12 18 0 20 2 9 9 -12 8 -15 33 -14 113 1
135 1 135 33 130 21 -3 32 3 49 27 l22 31 -83 1 c-46 0 -75 4 -65 8 10 4 18
11 17 16 -1 5 7 12 17 16 13 6 14 8 3 8 -12 1 -13 3 -1 10 10 7 11 18 3 55 -5
26 -6 46 -1 46 5 0 9 7 9 16 0 8 -5 12 -10 9 -7 -4 -9 7 -6 29 3 27 1 36 -10
36 -9 0 -13 4 -10 9 7 11 -49 32 -60 23 -4 -4 -4 1 -1 10 4 12 2 15 -8 12 -8
-3 -16 -15 -18 -27 -3 -18 -5 -17 -6 6 0 16 -7 27 -15 27 -8 0 -16 5 -18 11
-2 5 -7 7 -11 3z m11 -76 c-4 -25 0 -36 18 -51 13 -10 24 -24 24 -30 -1 -7 -8
-3 -18 9 -9 11 -20 21 -25 21 -4 1 -11 3 -16 5 -11 4 -1 78 11 78 6 0 8 -14 6
-32z m-38 2 c3 -1 -8 -6 -24 -10 -29 -9 -46 -6 -46 9 0 6 56 8 70 1z m166 -15
c8 -21 -6 -41 -17 -24 -12 19 -11 39 1 39 6 0 13 -7 16 -15z m-996 -34 c0 -5
-7 -11 -15 -15 -9 -3 -15 0 -15 9 0 8 7 15 15 15 8 0 15 -4 15 -9z m23 -133
c-3 -43 -10 -78 -14 -78 -5 0 -6 7 -3 15 4 8 2 15 -4 15 -5 0 -12 -7 -16 -15
-6 -17 -66 -21 -66 -5 0 5 12 12 28 16 49 10 52 13 52 41 0 48 12 105 21 96 4
-4 5 -43 2 -85z m-263 22 c0 -5 -7 -10 -16 -10 -8 0 -12 5 -9 10 3 6 10 10 16
10 5 0 9 -4 9 -10z m1255 -10 c-3 -5 -13 -10 -21 -10 -8 0 -12 5 -9 10 3 6 13
10 21 10 8 0 12 -4 9 -10z m1122 -6 c-3 -3 -12 -4 -19 -1 -8 3 -5 6 6 6 11 1
17 -2 13 -5z m-1630 -66 c-2 -13 -4 -5 -4 17 -1 22 1 32 4 23 2 -10 2 -28 0
-40z m243 36 c0 -8 -4 -12 -10 -9 -5 3 -10 10 -10 16 0 5 5 9 10 9 6 0 10 -7
10 -16z m-770 2 c0 -3 -4 -8 -10 -11 -5 -3 -10 -1 -10 4 0 6 5 11 10 11 6 0
10 -2 10 -4z m-103 -12 c-3 -3 -12 -4 -19 -1 -8 3 -5 6 6 6 11 1 17 -2 13 -5z
m663 -4 c0 -5 -5 -10 -11 -10 -5 0 -7 5 -4 10 3 6 8 10 11 10 2 0 4 -4 4 -10z
m141 -24 c5 3 9 0 9 -6 0 -15 -23 -7 -26 8 -1 7 0 8 3 2 2 -5 9 -8 14 -4z
m199 4 c0 -5 -7 -10 -15 -10 -8 0 -15 5 -15 10 0 6 7 10 15 10 8 0 15 -4 15
-10z m-215 -30 c3 -5 -1 -10 -10 -10 -9 0 -13 5 -10 10 3 6 8 10 10 10 2 0 7
-4 10 -10z m1463 -59 c30 -1 42 -5 42 -16 0 -13 10 -18 65 -28 14 -2 9 -7 -19
-15 -21 -6 -43 -18 -50 -27 -6 -8 -31 -17 -55 -20 -26 -2 -48 -10 -53 -20 -5
-8 -17 -15 -27 -15 -13 0 -20 -10 -24 -30 -4 -18 -13 -30 -22 -30 -21 0 -21
76 0 84 10 3 15 19 15 46 0 61 14 80 53 76 17 -2 51 -4 75 -5z m-1390 -165
c-2 -26 3 -50 11 -60 16 -20 15 -22 -22 -31 -23 -6 -27 -4 -27 15 0 15 5 20
14 17 11 -5 13 -1 8 14 -10 26 -2 100 9 93 5 -3 8 -25 7 -48z m-58 9 c0 -28
-24 -34 -34 -9 -8 20 1 34 20 34 8 0 14 -10 14 -25z m-814 -53 c-2 -4 -26 -5
-53 -3 l-48 5 45 6 c47 6 63 3 56 -8z m736 -1 c8 12 10 12 15 0 5 -11 7 -11
14 0 7 11 9 11 9 1 0 -7 -12 -17 -26 -22 -34 -13 -34 -13 -33 13 0 12 3 16 6
8 5 -11 7 -11 15 0z m-35 -37 c-3 -3 -12 -4 -19 -1 -8 3 -5 6 6 6 11 1 17 -2
13 -5z m802 -20 c8 -7 -64 -3 -104 6 -31 7 -24 7 30 3 39 -3 72 -7 74 -9z"/>
<path d="M1440 1113 c0 -6 8 -17 18 -24 16 -13 16 -13 2 6 -8 11 -16 22 -17
24 -2 2 -3 0 -3 -6z"/>
<path d="M740 966 c0 -27 3 -34 15 -30 8 4 15 13 15 21 0 8 -7 21 -15 29 -13
14 -15 11 -15 -20z"/>
<path d="M1056 954 c-9 -8 -16 -23 -15 -32 0 -13 3 -12 11 5 6 12 18 23 27 25
11 2 12 6 4 11 -6 4 -19 0 -27 -9z"/>
<path d="M1069 925 c-1 -8 -3 -19 -4 -25 -1 -5 -3 -13 -4 -17 -1 -5 -6 -1 -11
7 -7 11 -10 5 -10 -25 0 -22 -3 -50 -6 -62 -5 -17 -2 -23 10 -23 11 0 16 9 16
28 0 15 7 51 14 80 8 28 10 52 5 52 -5 0 -10 -7 -10 -15z"/>
<path d="M1021 884 c0 -11 3 -14 6 -6 3 7 2 16 -1 19 -3 4 -6 -2 -5 -13z"/>
<path d="M1570 878 c0 -4 4 -8 9 -8 6 0 12 4 15 8 3 5 -1 9 -9 9 -8 0 -15 -4
-15 -9z"/>
<path d="M1515 870 c-10 -17 4 -62 18 -57 15 5 16 59 0 64 -6 2 -14 -1 -18 -7z"/>
<path d="M620 850 c6 -11 13 -20 15 -20 3 0 5 9 5 20 0 11 -7 20 -15 20 -13 0
-14 -4 -5 -20z"/>
<path d="M1723 863 c-7 -2 -13 -9 -13 -14 0 -6 5 -7 10 -4 6 3 10 -1 10 -10 0
-9 5 -15 11 -13 6 2 10 7 10 11 -1 4 -1 14 -1 22 0 15 -6 17 -27 8z"/>
<path d="M1596 835 c31 -28 39 -31 31 -11 -3 8 -1 17 6 19 7 2 4 3 -5 2 -10
-2 -21 1 -24 6 -3 5 -12 9 -20 9 -10 0 -6 -8 12 -25z"/>
<path d="M1680 808 c0 -5 -13 -8 -30 -8 -21 0 -30 -5 -30 -16 0 -12 4 -14 13
-7 6 6 30 13 52 16 37 6 38 5 21 -8 -19 -14 -19 -15 8 -15 15 0 25 -4 21 -10
-9 -15 12 -12 28 5 9 9 41 15 88 18 l74 3 -77 2 c-56 1 -78 6 -78 15 0 9 -15
13 -45 12 -25 0 -45 -3 -45 -7z"/>
<path d="M1943 783 c9 -2 23 -2 30 0 6 3 -1 5 -18 5 -16 0 -22 -2 -12 -5z"/>
<path d="M1965 710 c-3 -5 0 -10 9 -10 8 0 23 -3 33 -6 14 -5 15 -4 4 4 -11 8
-10 11 5 15 12 3 7 5 -13 6 -17 0 -35 -3 -38 -9z"/>
<path d="M80 560 l-85 -6 75 -1 c41 -1 98 2 125 7 46 7 47 7 10 7 -22 0 -78
-4 -125 -7z"/>
</g>
</svg>
